<?xml version="1.0" standalone="no"?>
<!DOCTYPE svg PUBLIC "-//W3C//DTD SVG 20010904//EN"
 "http://www.w3.org/TR/2001/REC-SVG-20010904/DTD/svg10.dtd">
<svg version="1.0" xmlns="http://www.w3.org/2000/svg"
 width="512.000000pt" height="512.000000pt" viewBox="0 0 512.000000 512.000000"
 preserveAspectRatio="xMidYMid meet">

<g transform="translate(0.000000,512.000000) scale(0.100000,-0.100000)"
fill="#000000" stroke="none">
<path d="M325 4229 c-151 -22 -271 -133 -310 -285 -14 -54 -15 -217 -13 -1410
l3 -1349 22 -53 c44 -109 138 -197 242 -230 52 -16 198 -17 2291 -17 2093 0
2239 1 2291 17 104 33 198 121 242 230 l22 53 0 1375 0 1375 -22 53 c-43 106
-135 195 -237 229 -48 17 -184 18 -2261 19 -1226 1 -2237 -2 -2270 -7z m2289
-424 l17 -55 59 0 c34 0 62 -5 66 -12 7 -11 -2 -20 -61 -63 -28 -20 -28 -22
-17 -67 6 -25 14 -53 18 -62 10 -26 -23 -19 -71 15 l-43 31 -45 -31 c-71 -49
-78 -42 -52 44 16 53 16 53 -47 92 -16 10 -28 21 -28 25 0 4 0 11 0 16 0 4 27
9 61 12 62 5 62 5 76 45 7 22 15 46 18 53 10 28 32 9 49 -43z m-551 -128 l19
-57 58 0 c32 0 61 -4 65 -10 3 -5 -16 -26 -43 -48 l-49 -38 17 -58 c23 -72 9
-82 -49 -37 -21 17 -43 31 -48 31 -6 0 -29 -14 -52 -31 -62 -44 -75 -34 -51
37 11 32 19 58 18 58 -24 12 -97 80 -93 87 4 5 33 9 65 9 l58 0 18 53 c9 28
19 56 21 60 11 18 28 -3 46 -56z m1140 0 l19 -57 58 0 c32 0 61 -4 65 -9 4 -7
-69 -75 -93 -87 -1 0 7 -26 18 -58 24 -72 11 -81 -54 -35 l-46 33 -46 -33
c-65 -45 -77 -37 -54 35 l17 58 -49 38 c-27 22 -46 43 -43 48 4 6 33 10 65 10
l58 0 18 53 c9 28 19 56 21 60 11 18 28 -3 46 -56z m-1558 -418 l21 -54 62 -3
c46 -2 62 -7 62 -17 0 -8 -3 -15 -7 -15 -5 0 -25 -15 -47 -33 l-38 -33 16 -54
c22 -73 9 -82 -50 -38 l-48 36 -53 -36 c-29 -19 -56 -32 -59 -29 -6 6 7 73 21
110 4 10 -9 26 -39 48 -63 45 -60 57 16 61 l61 3 20 58 c10 32 24 56 30 54 7
-2 21 -28 32 -58z m1972 4 l20 -58 61 -3 c76 -4 79 -16 16 -61 -30 -22 -43
-38 -39 -48 14 -38 27 -104 21 -110 -3 -4 -30 10 -58 30 l-52 36 -49 -36 c-60
-44 -73 -36 -52 33 8 27 15 54 15 59 0 6 -21 24 -45 40 -62 42 -59 55 15 55
66 0 59 -6 94 83 8 20 19 37 25 37 5 0 18 -26 28 -57z m-2143 -598 l17 -55 59
0 c68 0 85 -15 47 -42 -76 -56 -73 -50 -54 -110 9 -30 17 -58 17 -61 0 -16
-32 -5 -74 24 l-44 31 -45 -31 c-71 -49 -78 -43 -52 43 8 27 14 50 13 51 -2 1
-22 16 -45 34 -60 46 -56 59 19 63 l61 3 14 40 c7 22 15 46 18 53 10 28 32 9
49 -43z m2280 0 l17 -54 61 -3 c34 -2 63 -8 65 -14 2 -6 -17 -25 -42 -43 -49
-35 -52 -47 -30 -110 20 -57 1 -64 -59 -21 l-44 32 -45 -31 c-25 -17 -50 -31
-56 -31 -15 0 -14 30 4 80 17 47 16 48 -47 87 -16 10 -28 21 -28 25 0 4 0 11
0 16 0 4 27 9 61 12 62 5 62 5 76 45 7 22 15 46 18 53 10 28 32 9 49 -43z
m-2109 -542 l20 -58 63 -3 c34 -2 62 -7 62 -12 0 -6 -42 -43 -89 -77 -2 -1 3
-28 12 -60 22 -76 11 -85 -50 -40 l-49 36 -52 -36 c-28 -20 -55 -33 -59 -29
-6 6 6 65 22 108 5 12 -6 26 -39 50 -62 45 -59 56 16 60 l61 3 20 58 c10 31
24 57 31 57 6 0 20 -26 31 -57z m1972 0 l20 -58 61 -3 c76 -4 79 -16 16 -61
-34 -23 -44 -36 -39 -49 16 -43 28 -102 22 -108 -4 -4 -31 9 -59 29 l-52 36
-49 -36 c-61 -45 -72 -36 -50 40 9 32 14 59 12 60 -47 34 -89 71 -89 77 0 5
28 10 63 12 l62 3 20 58 c11 31 25 57 31 57 7 0 21 -26 31 -57z m-1553 -421
l18 -51 62 -3 c38 -2 61 -7 61 -15 0 -6 -21 -28 -47 -47 l-47 -36 19 -55 c24
-71 10 -80 -54 -35 l-46 31 -46 -31 c-64 -45 -78 -36 -54 35 l19 55 -47 36
c-26 19 -47 41 -47 47 0 7 25 14 64 17 l64 5 14 40 c7 22 15 46 18 53 9 25 30
6 49 -46z m1136 2 l17 -49 64 -5 c39 -3 64 -10 64 -17 0 -6 -21 -28 -47 -47
l-47 -36 19 -55 c24 -71 10 -80 -54 -35 l-46 31 -46 -31 c-64 -45 -78 -36 -54
35 l19 55 -47 36 c-26 19 -47 41 -47 47 0 8 23 13 62 15 62 3 62 3 74 40 28
88 44 91 69 16z m-585 -181 l17 -53 58 0 c68 0 85 -15 47 -42 -75 -55 -72 -49
-54 -112 20 -72 8 -80 -56 -35 l-45 31 -45 -31 c-25 -17 -50 -31 -56 -31 -15
0 -14 30 4 80 8 24 14 44 13 44 -26 13 -97 81 -91 87 4 4 35 9 67 11 l59 3 16
45 c30 87 38 87 66 3z"/>
</g>
</svg>
